<svg width="413" height="82" viewBox="0 0 413 82" fill="none" xmlns="http://www.w3.org/2000/svg">
<rect width="413" height="82" fill="white"/>
<path d="M385.302 54.4399V47.3699H386.532L390.082 52.8899V47.3699H391.132V54.4399H389.932L386.362 48.9499V54.4399H385.302Z" fill="#26272B"/>
<path d="M379.646 54.52C378.919 54.52 378.302 54.3667 377.796 54.06C377.296 53.7467 376.916 53.3167 376.656 52.77C376.396 52.2234 376.266 51.6034 376.266 50.91C376.266 50.21 376.396 49.5867 376.656 49.04C376.916 48.4934 377.299 48.0667 377.806 47.76C378.312 47.4467 378.929 47.29 379.656 47.29C380.389 47.29 381.006 47.4434 381.506 47.75C382.006 48.0567 382.386 48.4834 382.646 49.03C382.906 49.5767 383.036 50.2 383.036 50.9C383.036 51.5934 382.906 52.2134 382.646 52.76C382.386 53.3067 382.002 53.7367 381.496 54.05C380.996 54.3634 380.379 54.52 379.646 54.52ZM379.656 53.55C380.189 53.55 380.626 53.4267 380.966 53.18C381.306 52.9334 381.556 52.61 381.716 52.21C381.876 51.81 381.956 51.3767 381.956 50.91C381.956 50.5567 381.909 50.22 381.816 49.9C381.729 49.58 381.592 49.2967 381.406 49.05C381.219 48.8034 380.979 48.61 380.686 48.47C380.392 48.33 380.049 48.26 379.656 48.26C379.129 48.26 378.692 48.3834 378.346 48.63C378.006 48.8767 377.752 49.2 377.586 49.6C377.419 50 377.336 50.4367 377.336 50.91C377.336 51.3767 377.416 51.81 377.576 52.21C377.742 52.61 377.996 52.9334 378.336 53.18C378.682 53.4267 379.122 53.55 379.656 53.55Z" fill="#26272B"/>
<path d="M372.931 54.4399V47.3699H373.991V54.4399H372.931Z" fill="#26272B"/>
<path d="M364.606 54.4399V47.3699H365.666V50.4799H369.206V47.3699H370.266V54.4399H369.206V51.4499H365.666V54.4399H364.606Z" fill="#26272B"/>
<path d="M359.644 54.52C359.184 54.52 358.751 54.4534 358.344 54.32C357.937 54.1867 357.594 53.97 357.314 53.67C357.034 53.37 356.847 52.9734 356.754 52.48H357.844C357.931 52.76 358.071 52.98 358.264 53.14C358.457 53.2934 358.681 53.4 358.934 53.46C359.194 53.52 359.454 53.55 359.714 53.55C359.961 53.55 360.191 53.5167 360.404 53.45C360.624 53.3834 360.804 53.2734 360.944 53.12C361.084 52.9667 361.154 52.7667 361.154 52.52C361.154 52.3334 361.117 52.18 361.044 52.06C360.971 51.94 360.867 51.8434 360.734 51.77C360.607 51.69 360.454 51.6267 360.274 51.58C360.067 51.5134 359.844 51.4567 359.604 51.41C359.371 51.3634 359.137 51.31 358.904 51.25C358.677 51.19 358.464 51.1134 358.264 51.02C358.097 50.9534 357.934 50.8734 357.774 50.78C357.621 50.68 357.487 50.5634 357.374 50.43C357.261 50.29 357.167 50.1267 357.094 49.94C357.027 49.7534 356.994 49.54 356.994 49.3C356.994 48.98 357.044 48.7067 357.144 48.48C357.251 48.2534 357.387 48.0634 357.554 47.91C357.727 47.7567 357.924 47.6367 358.144 47.55C358.371 47.4567 358.607 47.39 358.854 47.35C359.101 47.31 359.341 47.29 359.574 47.29C360.001 47.29 360.394 47.3567 360.754 47.49C361.114 47.6234 361.411 47.8367 361.644 48.13C361.884 48.4167 362.014 48.7967 362.034 49.27H361.004C360.977 49.0167 360.891 48.8167 360.744 48.67C360.604 48.5167 360.427 48.41 360.214 48.35C360.001 48.2834 359.774 48.25 359.534 48.25C359.361 48.25 359.187 48.2667 359.014 48.3C358.841 48.3267 358.681 48.38 358.534 48.46C358.394 48.5334 358.281 48.6334 358.194 48.76C358.114 48.8867 358.074 49.0434 358.074 49.23C358.074 49.39 358.107 49.5334 358.174 49.66C358.241 49.78 358.334 49.8834 358.454 49.97C358.581 50.05 358.721 50.12 358.874 50.18C359.154 50.2867 359.461 50.37 359.794 50.43C360.127 50.4834 360.441 50.56 360.734 50.66C360.947 50.7267 361.147 50.81 361.334 50.91C361.521 51.0034 361.681 51.12 361.814 51.26C361.947 51.3934 362.051 51.5534 362.124 51.74C362.197 51.92 362.234 52.13 362.234 52.37C362.234 52.7634 362.164 53.1 362.024 53.38C361.884 53.6534 361.694 53.8734 361.454 54.04C361.214 54.2067 360.937 54.33 360.624 54.41C360.311 54.4834 359.984 54.52 359.644 54.52Z" fill="#26272B"/>
<path d="M348.634 54.4399L351.304 47.3699H352.674L355.334 54.4399H354.194L353.674 53.0199H350.294L349.774 54.4399H348.634ZM350.644 52.0699H353.324L351.984 48.3799L350.644 52.0699Z" fill="#26272B"/>
<path d="M342.886 54.4399V47.3699H347.736V48.3399H343.946V50.7099H347.216V51.6899H343.946V54.4399H342.886Z" fill="#26272B"/>
<path d="M330.915 54.4399V47.3699H333.475C334.215 47.3699 334.835 47.5165 335.335 47.8099C335.842 48.0965 336.222 48.5065 336.475 49.0399C336.735 49.5665 336.865 50.1899 336.865 50.9099C336.865 51.6299 336.738 52.2532 336.485 52.7799C336.232 53.3065 335.852 53.7165 335.345 54.0099C334.845 54.2965 334.225 54.4399 333.485 54.4399H330.915ZM331.975 53.4699H333.435C333.982 53.4699 334.428 53.3632 334.775 53.1499C335.122 52.9299 335.378 52.6299 335.545 52.2499C335.712 51.8632 335.795 51.4165 335.795 50.9099C335.795 50.4165 335.712 49.9765 335.545 49.5899C335.385 49.2032 335.132 48.8999 334.785 48.6799C334.445 48.4532 334.005 48.3399 333.465 48.3399H331.975V53.4699Z" fill="#26272B"/>
<path d="M324.104 54.4399V47.3699H325.164V53.4699H328.944V54.4399H324.104Z" fill="#26272B"/>
<path d="M318.448 54.52C317.722 54.52 317.105 54.3667 316.598 54.06C316.098 53.7467 315.718 53.3167 315.458 52.77C315.198 52.2234 315.068 51.6034 315.068 50.91C315.068 50.21 315.198 49.5867 315.458 49.04C315.718 48.4934 316.102 48.0667 316.608 47.76C317.115 47.4467 317.732 47.29 318.458 47.29C319.192 47.29 319.808 47.4434 320.308 47.75C320.808 48.0567 321.188 48.4834 321.448 49.03C321.708 49.5767 321.838 50.2 321.838 50.9C321.838 51.5934 321.708 52.2134 321.448 52.76C321.188 53.3067 320.805 53.7367 320.298 54.05C319.798 54.3634 319.182 54.52 318.448 54.52ZM318.458 53.55C318.992 53.55 319.428 53.4267 319.768 53.18C320.108 52.9334 320.358 52.61 320.518 52.21C320.678 51.81 320.758 51.3767 320.758 50.91C320.758 50.5567 320.712 50.22 320.618 49.9C320.532 49.58 320.395 49.2967 320.208 49.05C320.022 48.8034 319.782 48.61 319.488 48.47C319.195 48.33 318.852 48.26 318.458 48.26C317.932 48.26 317.495 48.3834 317.148 48.63C316.808 48.8767 316.555 49.2 316.388 49.6C316.222 50 316.138 50.4367 316.138 50.91C316.138 51.3767 316.218 51.81 316.378 52.21C316.545 52.61 316.798 52.9334 317.138 53.18C317.485 53.4267 317.925 53.55 318.458 53.55Z" fill="#26272B"/>
<path d="M307.827 54.4399V47.3699H310.517C310.857 47.3699 311.167 47.3999 311.447 47.4599C311.734 47.5132 311.98 47.6099 312.187 47.7499C312.394 47.8832 312.55 48.0665 312.657 48.2999C312.77 48.5265 312.827 48.8132 312.827 49.1599C312.827 49.4999 312.75 49.8065 312.597 50.0799C312.444 50.3465 312.21 50.5465 311.897 50.6799C312.317 50.7732 312.634 50.9632 312.847 51.2499C313.067 51.5365 313.177 51.9132 313.177 52.3799C313.177 52.7799 313.104 53.1132 312.957 53.3799C312.81 53.6465 312.607 53.8565 312.347 54.0099C312.087 54.1632 311.787 54.2732 311.447 54.3399C311.107 54.4065 310.744 54.4399 310.357 54.4399H307.827ZM308.887 53.4699H310.397C310.597 53.4699 310.797 53.4599 310.997 53.4399C311.197 53.4132 311.38 53.3632 311.547 53.2899C311.72 53.2165 311.857 53.1065 311.957 52.9599C312.064 52.8132 312.117 52.6165 312.117 52.3699C312.117 52.1632 312.077 51.9932 311.997 51.8599C311.917 51.7199 311.81 51.6099 311.677 51.5299C311.544 51.4499 311.387 51.3932 311.207 51.3599C311.034 51.3265 310.854 51.3099 310.667 51.3099H308.887V53.4699ZM308.887 50.3999H310.227C310.454 50.3999 310.66 50.3799 310.847 50.3399C311.04 50.2999 311.207 50.2332 311.347 50.1399C311.487 50.0465 311.594 49.9299 311.667 49.7899C311.747 49.6432 311.787 49.4665 311.787 49.2599C311.794 48.9865 311.734 48.7865 311.607 48.6599C311.487 48.5265 311.324 48.4399 311.117 48.3999C310.91 48.3532 310.684 48.3299 310.437 48.3299H308.887V50.3999Z" fill="#26272B"/>
<path d="M295.769 54.4399V47.3699H296.829V50.4799H300.369V47.3699H301.429V54.4399H300.369V51.4499H296.829V54.4399H295.769Z" fill="#26272B"/>
<path d="M290.517 54.4399V48.3399H288.277V47.3699H293.807V48.3399H291.577V54.4399H290.517Z" fill="#26272B"/>
<path d="M285.263 54.4399V47.3699H286.323V54.4399H285.263Z" fill="#26272B"/>
<path d="M275.501 54.4399L273.641 47.3699H274.831L276.311 53.4199L277.761 47.3699H279.271L280.711 53.4199L282.191 47.3699H283.321L281.471 54.4399H279.931L278.491 48.4899L277.051 54.4399H275.501Z" fill="#26272B"/>
<path d="M264.069 54.4399V47.3699H268.939V48.3399H265.129V50.4599H268.499V51.4199H265.129V53.4699H268.939V54.4399H264.069Z" fill="#26272B"/>
<path d="M257.259 54.4399V47.3699H258.319V53.4699H262.099V54.4399H257.259Z" fill="#26272B"/>
<path d="M251.722 54.4399V51.7899L249.172 47.3699H250.402L252.262 50.7599L254.112 47.3699H255.312L252.772 51.7799V54.4399H251.722Z" fill="#26272B"/>
<path d="M244.64 54.4399V48.3399H242.4V47.3699H247.93V48.3399H245.7V54.4399H244.64Z" fill="#26272B"/>
<path d="M238.245 54.52C237.785 54.52 237.352 54.4534 236.945 54.32C236.539 54.1867 236.195 53.97 235.915 53.67C235.635 53.37 235.449 52.9734 235.355 52.48H236.445C236.532 52.76 236.672 52.98 236.865 53.14C237.059 53.2934 237.282 53.4 237.535 53.46C237.795 53.52 238.055 53.55 238.315 53.55C238.562 53.55 238.792 53.5167 239.005 53.45C239.225 53.3834 239.405 53.2734 239.545 53.12C239.685 52.9667 239.755 52.7667 239.755 52.52C239.755 52.3334 239.719 52.18 239.645 52.06C239.572 51.94 239.469 51.8434 239.335 51.77C239.209 51.69 239.055 51.6267 238.875 51.58C238.669 51.5134 238.445 51.4567 238.205 51.41C237.972 51.3634 237.739 51.31 237.505 51.25C237.279 51.19 237.065 51.1134 236.865 51.02C236.699 50.9534 236.535 50.8734 236.375 50.78C236.222 50.68 236.089 50.5634 235.975 50.43C235.862 50.29 235.769 50.1267 235.695 49.94C235.629 49.7534 235.595 49.54 235.595 49.3C235.595 48.98 235.645 48.7067 235.745 48.48C235.852 48.2534 235.989 48.0634 236.155 47.91C236.329 47.7567 236.525 47.6367 236.745 47.55C236.972 47.4567 237.209 47.39 237.455 47.35C237.702 47.31 237.942 47.29 238.175 47.29C238.602 47.29 238.995 47.3567 239.355 47.49C239.715 47.6234 240.012 47.8367 240.245 48.13C240.485 48.4167 240.615 48.7967 240.635 49.27H239.605C239.579 49.0167 239.492 48.8167 239.345 48.67C239.205 48.5167 239.029 48.41 238.815 48.35C238.602 48.2834 238.375 48.25 238.135 48.25C237.962 48.25 237.789 48.2667 237.615 48.3C237.442 48.3267 237.282 48.38 237.135 48.46C236.995 48.5334 236.882 48.6334 236.795 48.76C236.715 48.8867 236.675 49.0434 236.675 49.23C236.675 49.39 236.709 49.5334 236.775 49.66C236.842 49.78 236.935 49.8834 237.055 49.97C237.182 50.05 237.322 50.12 237.475 50.18C237.755 50.2867 238.062 50.37 238.395 50.43C238.729 50.4834 239.042 50.56 239.335 50.66C239.549 50.7267 239.749 50.81 239.935 50.91C240.122 51.0034 240.282 51.12 240.415 51.26C240.549 51.3934 240.652 51.5534 240.725 51.74C240.799 51.92 240.835 52.13 240.835 52.37C240.835 52.7634 240.765 53.1 240.625 53.38C240.485 53.6534 240.295 53.8734 240.055 54.04C239.815 54.2067 239.539 54.33 239.225 54.41C238.912 54.4834 238.585 54.52 238.245 54.52Z" fill="#26272B"/>
<path d="M224.231 54.4399V47.3699H226.951C227.331 47.3699 227.678 47.4099 227.991 47.4899C228.305 47.5632 228.578 47.6865 228.811 47.8599C229.045 48.0265 229.225 48.2532 229.351 48.5399C229.478 48.8265 229.541 49.1799 229.541 49.5999C229.541 49.9799 229.475 50.3065 229.341 50.5799C229.208 50.8532 229.025 51.0799 228.791 51.2599C228.558 51.4399 228.295 51.5765 228.001 51.6699L229.511 54.4399H228.341L226.941 51.8399H225.291V54.4399H224.231ZM225.291 50.8899H226.731C226.971 50.8899 227.195 50.8732 227.401 50.8399C227.615 50.7999 227.801 50.7332 227.961 50.6399C228.121 50.5399 228.245 50.4065 228.331 50.2399C228.425 50.0665 228.471 49.8465 228.471 49.5799C228.478 49.2732 228.418 49.0299 228.291 48.8499C228.171 48.6632 227.991 48.5332 227.751 48.4599C227.511 48.3799 227.221 48.3399 226.881 48.3399H225.291V50.8899Z" fill="#26272B"/>
<path d="M218.747 54.5199C218.08 54.5199 217.534 54.3865 217.107 54.1199C216.687 53.8465 216.377 53.4732 216.177 52.9999C215.977 52.5265 215.877 51.9765 215.877 51.3499V47.3699H216.937V51.3599C216.937 51.7532 216.994 52.1165 217.107 52.4499C217.22 52.7832 217.41 53.0499 217.677 53.2499C217.944 53.4499 218.304 53.5499 218.757 53.5499C219.217 53.5499 219.577 53.4499 219.837 53.2499C220.097 53.0499 220.28 52.7832 220.387 52.4499C220.494 52.1165 220.547 51.7532 220.547 51.3599V47.3699H221.617V51.3499C221.617 51.9699 221.517 52.5199 221.317 52.9999C221.117 53.4732 220.807 53.8465 220.387 54.1199C219.967 54.3865 219.42 54.5199 218.747 54.5199Z" fill="#26272B"/>
<path d="M210.271 54.52C209.544 54.52 208.927 54.3667 208.421 54.06C207.921 53.7467 207.541 53.3167 207.281 52.77C207.021 52.2234 206.891 51.6034 206.891 50.91C206.891 50.21 207.021 49.5867 207.281 49.04C207.541 48.4934 207.924 48.0667 208.431 47.76C208.937 47.4467 209.554 47.29 210.281 47.29C211.014 47.29 211.631 47.4434 212.131 47.75C212.631 48.0567 213.011 48.4834 213.271 49.03C213.531 49.5767 213.661 50.2 213.661 50.9C213.661 51.5934 213.531 52.2134 213.271 52.76C213.011 53.3067 212.627 53.7367 212.121 54.05C211.621 54.3634 211.004 54.52 210.271 54.52ZM210.281 53.55C210.814 53.55 211.251 53.4267 211.591 53.18C211.931 52.9334 212.181 52.61 212.341 52.21C212.501 51.81 212.581 51.3767 212.581 50.91C212.581 50.5567 212.534 50.22 212.441 49.9C212.354 49.58 212.217 49.2967 212.031 49.05C211.844 48.8034 211.604 48.61 211.311 48.47C211.017 48.33 210.674 48.26 210.281 48.26C209.754 48.26 209.317 48.3834 208.971 48.63C208.631 48.8767 208.377 49.2 208.211 49.6C208.044 50 207.961 50.4367 207.961 50.91C207.961 51.3767 208.041 51.81 208.201 52.21C208.367 52.61 208.621 52.9334 208.961 53.18C209.307 53.4267 209.747 53.55 210.281 53.55Z" fill="#26272B"/>
<path d="M202.007 54.4399V51.7899L199.457 47.3699H200.687L202.547 50.7599L204.397 47.3699H205.597L203.057 51.7799V54.4399H202.007Z" fill="#26272B"/>
<path d="M189.29 54.4399V47.3699H194.16V48.3399H190.35V50.4599H193.72V51.4199H190.35V53.4699H194.16V54.4399H189.29Z" fill="#26272B"/>
<path d="M184.039 54.4399V48.3399H181.799V47.3699H187.329V48.3399H185.099V54.4399H184.039Z" fill="#26272B"/>
<path d="M174.411 54.4399L177.081 47.3699H178.451L181.111 54.4399H179.971L179.451 53.0199H176.071L175.551 54.4399H174.411ZM176.421 52.0699H179.101L177.761 48.3799L176.421 52.0699Z" fill="#26272B"/>
<path d="M169.636 54.4399L167.006 47.3699H168.166L170.376 53.5399L172.576 47.3699H173.716L171.106 54.4399H169.636Z" fill="#26272B"/>
<path d="M160.583 54.4399V47.3699H165.453V48.3399H161.643V50.4599H165.013V51.4199H161.643V53.4699H165.453V54.4399H160.583Z" fill="#26272B"/>
<path d="M153.772 54.4399V47.3699H154.832V53.4699H158.612V54.4399H153.772Z" fill="#26272B"/>
<path d="M146.63 54.4399V47.3699H151.5V48.3399H147.69V50.4599H151.06V51.4199H147.69V53.4699H151.5V54.4399H146.63Z" fill="#26272B"/>
<path d="M103.88 56C103.507 56 103.213 55.84 103 55.52C102.76 55.2 102.64 54.7867 102.64 54.28C102.64 53.7467 102.773 53.3333 103.04 53.04C103.307 52.7467 103.653 52.6 104.08 52.6C105.68 52.6 107.147 52.1733 108.48 51.32C109.84 50.44 110.96 49.2533 111.84 47.76C111.787 47.36 111.76 46.9333 111.76 46.48C111.76 44.4533 112.16 42.6533 112.96 41.08C113.76 39.5067 114.84 38.2667 116.2 37.36C117.587 36.4533 119.16 36 120.92 36C121.853 36 122.773 36.1867 123.68 36.56C124.587 36.9067 125.347 37.3867 125.96 38V36.36C126.2 36.28 126.48 36.2133 126.8 36.16C127.12 36.1067 127.453 36.08 127.8 36.08C128.44 36.08 129.04 36.1733 129.6 36.36V48.44C129.6 49.9067 129.787 50.96 130.16 51.6C130.56 52.24 131.187 52.56 132.04 52.56C132.333 52.56 132.653 52.4933 133 52.36C133.347 52.2267 133.707 52.0267 134.08 51.76C134.533 51.9733 134.907 52.3467 135.2 52.88C135.493 53.3867 135.627 53.8933 135.6 54.4C135.173 54.88 134.627 55.2667 133.96 55.56C133.293 55.8533 132.573 56 131.8 56H131.76C129.227 56 127.52 54.96 126.64 52.88C125.867 53.8667 124.933 54.64 123.84 55.2C122.747 55.7333 121.533 56 120.2 56C118.6 56 117.187 55.64 115.96 54.92C114.76 54.2 113.8 53.2 113.08 51.92C111.96 53.2267 110.613 54.24 109.04 54.96C107.467 55.6533 105.747 56 103.88 56ZM115.48 46.48C115.48 48.3733 115.907 49.8667 116.76 50.96C117.64 52.0267 118.84 52.56 120.36 52.56C122.04 52.56 123.387 51.9867 124.4 50.84C125.44 49.6933 125.96 48.1867 125.96 46.32V41.84C125.427 41.12 124.747 40.5467 123.92 40.12C123.093 39.6667 122.24 39.44 121.36 39.44C120.213 39.44 119.2 39.7467 118.32 40.36C117.44 40.9733 116.747 41.8133 116.24 42.88C115.733 43.92 115.48 45.12 115.48 46.48Z" fill="#26272B"/>
<path d="M90.1439 56C89.7972 56 89.5172 55.84 89.3039 55.52C89.0906 55.2 88.9839 54.7867 88.9839 54.28C88.9839 53.7467 89.1172 53.3333 89.3839 53.04C89.6239 52.72 89.9572 52.56 90.3839 52.56C91.2372 52.56 92.1572 52.2533 93.1439 51.64C94.1306 51.0267 95.0906 50.1867 96.0239 49.12C95.8106 48.1333 95.6372 46.9733 95.5039 45.64C95.3972 44.3067 95.3172 42.6933 95.2639 40.8C95.2106 38.9067 95.1839 36.6267 95.1839 33.96H95.2239L95.1839 33.92C95.1839 31.5467 95.2106 29.5333 95.2639 27.88C95.3172 26.2267 95.4239 24.84 95.5839 23.72C95.7439 22.6 95.9439 21.6533 96.1839 20.88C96.4506 20.08 96.7839 19.36 97.1839 18.72C97.7706 17.76 98.4906 17.0667 99.3439 16.64C100.224 16.2133 101.184 16 102.224 16C104.304 16 105.904 16.92 107.024 18.76C108.144 20.6 108.704 23.1333 108.704 26.36C108.704 30.2267 107.944 34.2 106.424 38.28C104.904 42.36 102.731 46.2533 99.9039 49.96C100.277 50.84 100.824 51.5067 101.544 51.96C102.264 52.3867 103.091 52.6 104.024 52.6C104.397 52.6 104.691 52.76 104.904 53.08C105.144 53.3733 105.264 53.7867 105.264 54.32C105.264 55.44 104.771 56 103.784 56C102.344 56 101.064 55.6933 99.9439 55.08C98.8239 54.4667 97.9572 53.68 97.3439 52.72C95.1306 54.9067 92.7306 56 90.1439 56ZM98.7439 34.16C98.7439 36.96 98.7572 39.2667 98.7839 41.08C98.8372 42.8933 98.9039 44.3867 98.9839 45.56C101.011 42.2 102.544 38.92 103.584 35.72C104.624 32.4933 105.144 29.36 105.144 26.32C105.144 24.1067 104.891 22.4133 104.384 21.24C103.877 20.04 103.157 19.44 102.224 19.44C101.184 19.44 100.397 20.0533 99.8639 21.28C99.5972 21.92 99.3706 22.7333 99.1839 23.72C99.0239 24.68 98.9039 25.9867 98.8239 27.64C98.7706 29.2933 98.7439 31.4667 98.7439 34.16Z" fill="#26272B"/>
<path d="M62.2788 56C61.9055 56 61.6122 55.84 61.3988 55.52C61.1588 55.2 61.0388 54.7867 61.0388 54.28C61.0388 53.7467 61.1721 53.3333 61.4388 53.04C61.7055 52.7467 62.0522 52.6 62.4788 52.6C64.0788 52.6 65.5455 52.1733 66.8788 51.32C68.2388 50.44 69.3588 49.2533 70.2388 47.76C70.1855 47.36 70.1588 46.9333 70.1588 46.48C70.1588 44.4533 70.5588 42.6533 71.3588 41.08C72.1588 39.5067 73.2388 38.2667 74.5988 37.36C75.9855 36.4533 77.5588 36 79.3188 36C80.2522 36 81.1722 36.1867 82.0788 36.56C82.9855 36.9067 83.7455 37.3867 84.3588 38V36.36C84.5988 36.28 84.8788 36.2133 85.1988 36.16C85.5188 36.1067 85.8522 36.08 86.1988 36.08C86.8388 36.08 87.4388 36.1733 87.9988 36.36V48.44C87.9988 49.9067 88.1855 50.96 88.5588 51.6C88.9588 52.24 89.5855 52.56 90.4388 52.56C90.8121 52.56 91.0922 52.72 91.2788 53.04C91.4922 53.36 91.5988 53.7867 91.5988 54.32C91.5988 54.7467 91.4788 55.1333 91.2388 55.48C91.0255 55.8267 90.6655 56 90.1588 56C87.6255 56 85.9188 54.96 85.0388 52.88C84.2655 53.8667 83.3322 54.64 82.2388 55.2C81.1455 55.7333 79.9322 56 78.5988 56C76.9988 56 75.5855 55.64 74.3588 54.92C73.1588 54.2 72.1988 53.2 71.4788 51.92C70.3588 53.2267 69.0121 54.24 67.4388 54.96C65.8655 55.6533 64.1455 56 62.2788 56ZM73.8788 46.48C73.8788 48.3733 74.3055 49.8667 75.1588 50.96C76.0388 52.0267 77.2388 52.56 78.7588 52.56C80.4388 52.56 81.7855 51.9867 82.7988 50.84C83.8388 49.6933 84.3588 48.1867 84.3588 46.32V41.84C83.8255 41.12 83.1455 40.5467 82.3188 40.12C81.4922 39.6667 80.6388 39.44 79.7588 39.44C78.6122 39.44 77.5988 39.7467 76.7188 40.36C75.8388 40.9733 75.1455 41.8133 74.6388 42.88C74.1322 43.92 73.8788 45.12 73.8788 46.48Z" fill="#26272B"/>
<path d="M51.1929 56C50.2062 55.3067 49.5529 54.2267 49.2329 52.76C50.1129 52.2533 51.0062 51.64 51.9129 50.92C52.8196 50.2 53.6329 49.44 54.3529 48.64C54.0596 47.2 53.8596 45.3333 53.7529 43.04C53.6462 40.7467 53.5929 37.72 53.5929 33.96H53.6329L53.5929 33.92C53.5929 31.5467 53.6196 29.5333 53.6729 27.88C53.7262 26.2267 53.8329 24.84 53.9929 23.72C54.1529 22.6 54.3529 21.6533 54.5929 20.88C54.8596 20.08 55.1929 19.36 55.5929 18.72C56.1796 17.76 56.8996 17.0667 57.7529 16.64C58.6329 16.2133 59.5929 16 60.6329 16C62.7129 16 64.3129 16.92 65.4329 18.76C66.5529 20.6 67.1129 23.1333 67.1129 26.36C67.1129 28.68 66.8596 30.9867 66.3529 33.28C65.8729 35.5467 65.2062 37.7067 64.3529 39.76C63.5262 41.8133 62.5796 43.6933 61.5129 45.4C60.4462 47.08 59.3396 48.5067 58.1929 49.68C58.2196 49.76 58.2596 49.8533 58.3129 49.96C58.6862 50.84 59.2329 51.5067 59.9529 51.96C60.6729 52.3867 61.4996 52.6 62.4329 52.6C62.8062 52.6 63.0996 52.76 63.3129 53.08C63.5529 53.3733 63.6729 53.7867 63.6729 54.32C63.6729 55.44 63.1796 56 62.1929 56C60.6729 56 59.3262 55.6667 58.1529 55C57.0062 54.3067 56.1529 53.4533 55.5929 52.44C55.0329 53.0267 54.3929 53.6133 53.6729 54.2C52.9796 54.76 52.1529 55.36 51.1929 56ZM57.1529 34.16C57.1529 36.9067 57.1662 39.1867 57.1929 41C57.2462 42.7867 57.3129 44.2667 57.3929 45.44C58.5396 43.8933 59.5796 42.08 60.5129 40C61.4462 37.8933 62.1796 35.6667 62.7129 33.32C63.2729 30.9733 63.5529 28.64 63.5529 26.32C63.5529 24.1067 63.2996 22.4133 62.7929 21.24C62.2862 20.04 61.5662 19.44 60.6329 19.44C59.5929 19.44 58.8062 20.0533 58.2729 21.28C58.0062 21.92 57.7796 22.7333 57.5929 23.72C57.4329 24.68 57.3129 25.9867 57.2329 27.64C57.1796 29.2933 57.1529 31.4667 57.1529 34.16Z" fill="#26272B"/>
<path d="M34.96 56C32.4 56 30.1467 55.3733 28.2 54.12C26.2533 52.84 24.7333 51.08 23.64 48.84C22.5467 46.5733 22 43.96 22 41C22 38.04 22.5467 35.44 23.64 33.2C24.7333 30.9333 26.2533 29.1733 28.2 27.92C30.1467 26.64 32.4 26 34.96 26C37.52 26 39.76 26.64 41.68 27.92C43.6267 29.1733 45.1333 30.92 46.2 33.16C47.2933 35.4 47.84 38.0133 47.84 41C47.84 43.96 47.2933 46.5733 46.2 48.84C45.1333 51.08 43.6267 52.84 41.68 54.12C39.76 55.3733 37.52 56 34.96 56ZM34.92 52.4C36.76 52.4 38.36 51.9333 39.72 51C41.08 50.04 42.1333 48.7067 42.88 47C43.6267 45.2667 44 43.2667 44 41C44 38.7067 43.6267 36.7067 42.88 35C42.1333 33.2933 41.08 31.9733 39.72 31.04C38.36 30.08 36.7733 29.6 34.96 29.6C33.1467 29.6 31.5467 30.08 30.16 31.04C28.8 31.9733 27.7333 33.2933 26.96 35C26.2133 36.7067 25.84 38.7067 25.84 41C25.84 43.2667 26.2133 45.2667 26.96 47C27.7067 48.7067 28.76 50.04 30.12 51C31.5067 51.9333 33.1067 52.4 34.92 52.4Z" fill="#26272B"/>
</svg>
