<svg width="32" height="32" viewBox="0 0 32 32" fill="none" xmlns="http://www.w3.org/2000/svg">
<rect width="32" height="32" fill="white"/>
<path d="M11.923 24.28C11.7363 24.28 11.5896 24.2 11.483 24.04C11.363 23.88 11.303 23.6734 11.303 23.42C11.303 23.1534 11.3696 22.9467 11.503 22.8C11.6363 22.6534 11.8096 22.58 12.023 22.58C12.823 22.58 13.5563 22.3667 14.223 21.94C14.903 21.5 15.463 20.9067 15.903 20.16C15.8763 19.96 15.863 19.7467 15.863 19.52C15.863 18.5067 16.063 17.6067 16.463 16.82C16.863 16.0334 17.403 15.4134 18.083 14.96C18.7763 14.5067 19.563 14.28 20.443 14.28C20.9096 14.28 21.3696 14.3734 21.823 14.56C22.2763 14.7334 22.6563 14.9734 22.963 15.28V14.46C23.083 14.42 23.223 14.3867 23.383 14.36C23.543 14.3334 23.7096 14.32 23.883 14.32C24.203 14.32 24.503 14.3667 24.783 14.46V20.5C24.783 21.2334 24.8763 21.76 25.063 22.08C25.263 22.4 25.5763 22.56 26.003 22.56C26.1496 22.56 26.3096 22.5267 26.483 22.46C26.6563 22.3934 26.8363 22.2934 27.023 22.16C27.2496 22.2667 27.4363 22.4534 27.583 22.72C27.7296 22.9734 27.7963 23.2267 27.783 23.48C27.5696 23.72 27.2963 23.9134 26.963 24.06C26.6296 24.2067 26.2696 24.28 25.883 24.28H25.863C24.5963 24.28 23.743 23.76 23.303 22.72C22.9163 23.2134 22.4496 23.6 21.903 23.88C21.3563 24.1467 20.7496 24.28 20.083 24.28C19.283 24.28 18.5763 24.1 17.963 23.74C17.363 23.38 16.883 22.88 16.523 22.24C15.963 22.8934 15.2896 23.4 14.503 23.76C13.7163 24.1067 12.8563 24.28 11.923 24.28ZM17.723 19.52C17.723 20.4667 17.9363 21.2134 18.363 21.76C18.803 22.2934 19.403 22.56 20.163 22.56C21.003 22.56 21.6763 22.2734 22.183 21.7C22.703 21.1267 22.963 20.3734 22.963 19.44V17.2C22.6963 16.84 22.3563 16.5534 21.943 16.34C21.5296 16.1134 21.103 16 20.663 16C20.0896 16 19.583 16.1534 19.143 16.46C18.703 16.7667 18.3563 17.1867 18.103 17.72C17.8496 18.24 17.723 18.84 17.723 19.52Z" fill="#26272B"/>
<path d="M6.3799 24.28C5.88657 23.9334 5.5599 23.3934 5.3999 22.66C5.8399 22.4067 6.28657 22.1 6.7399 21.74C7.19324 21.38 7.5999 21 7.9599 20.6C7.81324 19.88 7.71324 18.9467 7.6599 17.8C7.60657 16.6534 7.5799 15.14 7.5799 13.26H7.5999L7.5799 13.24C7.5799 12.0534 7.59324 11.0467 7.6199 10.22C7.64657 9.39336 7.6999 8.70003 7.7799 8.14003C7.8599 7.58003 7.9599 7.1067 8.0799 6.72003C8.21324 6.32003 8.3799 5.96003 8.5799 5.64003C8.87324 5.16003 9.23324 4.81336 9.6599 4.60003C10.0999 4.3867 10.5799 4.28003 11.0999 4.28003C12.1399 4.28003 12.9399 4.74003 13.4999 5.66003C14.0599 6.58003 14.3399 7.8467 14.3399 9.46003C14.3399 10.62 14.2132 11.7734 13.9599 12.92C13.7199 14.0534 13.3866 15.1334 12.9599 16.16C12.5466 17.1867 12.0732 18.1267 11.5399 18.98C11.0066 19.82 10.4532 20.5334 9.8799 21.12C9.89324 21.16 9.91324 21.2067 9.9399 21.26C10.1266 21.7 10.3999 22.0334 10.7599 22.26C11.1199 22.4734 11.5332 22.58 11.9999 22.58C12.1866 22.58 12.3332 22.66 12.4399 22.82C12.5599 22.9667 12.6199 23.1734 12.6199 23.44C12.6199 24 12.3732 24.28 11.8799 24.28C11.1199 24.28 10.4466 24.1134 9.8599 23.78C9.28657 23.4334 8.8599 23.0067 8.5799 22.5C8.2999 22.7934 7.9799 23.0867 7.6199 23.38C7.27324 23.66 6.8599 23.96 6.3799 24.28ZM9.3599 13.36C9.3599 14.7334 9.36657 15.8734 9.3799 16.78C9.40657 17.6734 9.4399 18.4134 9.4799 19C10.0532 18.2267 10.5732 17.32 11.0399 16.28C11.5066 15.2267 11.8732 14.1134 12.1399 12.94C12.4199 11.7667 12.5599 10.6 12.5599 9.44003C12.5599 8.33336 12.4332 7.4867 12.1799 6.90003C11.9266 6.30003 11.5666 6.00003 11.0999 6.00003C10.5799 6.00003 10.1866 6.3067 9.9199 6.92003C9.78657 7.24003 9.67324 7.6467 9.5799 8.14003C9.4999 8.62003 9.4399 9.27336 9.3999 10.1C9.37324 10.9267 9.3599 12.0134 9.3599 13.36Z" fill="#26272B"/>
</svg>
